<svg width="16" height="16" viewBox="0 0 16 16" fill="none" xmlns="http://www.w3.org/2000/svg">
<path fill-rule="evenodd" clip-rule="evenodd" d="M4 3H7V4.49713H4V3ZM4 5.49713V14.9097H7V5.49713H4Z" fill="#2B56B1"/>
<path fill-rule="evenodd" clip-rule="evenodd" d="M9 2H12V3.49713H9V2ZM9 4.49713V13.9097H12V4.49713H9Z" fill="#2B56B1"/>
<path d="M4.77522 2.4844C5.20336 2.4844 5.55044 2.13732 5.55044 1.70918C5.55044 1.28104 5.20336 0.93396 4.77522 0.93396C4.34708 0.93396 4 1.28104 4 1.70918C4 2.13732 4.34708 2.4844 4.77522 2.4844Z" fill="#2B56B1"/>
<path d="M2.97136 1.94271C3.50782 1.94271 3.94271 1.50782 3.94271 0.971357C3.94271 0.434891 3.50782 0 2.97136 0C2.43489 0 2 0.434891 2 0.971357C2 1.50782 2.43489 1.94271 2.97136 1.94271Z" fill="#2B56B1"/>
<path d="M1 10.6L12 7V16H1V10.6Z" fill="#2B56B1"/>
<path d="M5 11.5H15V16H5V11.5Z" fill="#2B56B1"/>
</svg>
